<?xml version="1.0" standalone="no"?>
<!DOCTYPE svg PUBLIC "-//W3C//DTD SVG 20010904//EN"
 "http://www.w3.org/TR/2001/REC-SVG-20010904/DTD/svg10.dtd">
<svg version="1.0" xmlns="http://www.w3.org/2000/svg"
 width="2048.000000pt" height="2054.000000pt" viewBox="0 0 2048.000000 2054.000000"
 preserveAspectRatio="xMidYMid meet">

<g transform="translate(0.000000,2054.000000) scale(0.100000,-0.100000)"
fill="#ffffff" stroke="none">
<path d="M5188 18628 c0 -13 -2 -36 -4 -53 -1 -16 -2 -38 -3 -47 -1 -15 -11
-18 -61 -18 l-60 0 0 -65 0 -65 -65 0 -64 0 -3 -72 -3 -73 -67 -3 -67 -3 -3
-72 -3 -72 -67 -3 -68 -3 0 -69 0 -70 -60 0 -60 0 0 -60 c0 -50 -3 -60 -17
-61 -61 -4 -58 0 -61 -71 l-3 -68 -49 0 -50 0 0 -80 0 -80 -60 0 -60 0 0 -70
0 -70 -55 0 -55 0 0 -140 0 -140 -40 -1 c-22 -1 -44 -3 -50 -4 -5 -1 -17 -3
-25 -4 -12 -1 -15 -23 -15 -131 l0 -130 -65 0 -65 0 0 -145 0 -145 -50 0 -50
0 0 -210 0 -210 -65 0 -65 0 2 -752 c3 -745 3 -753 23 -754 11 0 39 -1 62 -2
l43 -2 2 -272 3 -273 58 -3 57 -3 0 -134 0 -135 50 0 50 0 0 -136 0 -136 43 2
c23 1 57 1 75 1 l32 -1 0 -85 0 -85 270 0 270 0 0 -65 0 -65 60 0 60 0 -2
-202 -3 -203 -57 -3 -58 -3 0 -68 0 -68 -212 1 -213 1 -5 60 -5 60 -55 0 -55
0 0 -125 0 -125 58 -3 57 -3 0 -89 0 -90 60 0 60 0 0 -40 0 -40 110 0 111 0
-3 -117 -3 -116 -55 -1 -55 -1 -3 -137 -3 -138 -49 -1 c-28 -1 -56 -2 -62 -3
-10 -1 -14 -38 -16 -143 l-3 -143 -64 0 -65 0 0 -340 0 -340 70 0 70 0 0 66 0
65 48 -1 c74 -3 72 -4 72 50 l0 50 55 0 55 0 0 -179 0 -180 -52 -3 -53 -3 -1
-750 -1 -750 -56 -3 -57 -3 0 61 0 60 -74 0 -74 0 0 48 c0 86 2 82 -47 82
l-44 0 -3 68 -3 67 -42 3 -43 3 0 65 0 64 -60 0 -60 0 0 75 0 75 -65 0 -65 0
0 145 0 145 -65 0 -65 0 0 205 0 205 -65 0 -65 0 -2 333 -3 332 -72 3 -73 3 0
659 0 660 -55 0 c-53 0 -55 -1 -56 -27 -3 -95 1 -88 -54 -93 l-50 -5 -3 -67
-3 -68 -69 0 -70 0 0 -115 0 -115 -65 0 -65 0 0 -140 0 -140 -60 0 c-50 0 -60
-3 -61 -17 -2 -33 -6 -187 -8 -285 l-1 -97 -62 -3 -63 -3 -3 -137 -3 -137 -42
-3 -42 -3 -3 -132 -3 -133 -59 0 -60 0 0 -935 0 -935 55 0 55 0 0 -170 0 -170
50 0 50 0 2 -202 3 -203 62 -3 62 -3 3 -137 3 -137 63 -3 62 -3 0 -129 0 -130
65 0 65 0 0 -130 0 -130 70 0 70 0 0 -125 0 -125 65 0 65 0 0 -74 c0 -85 1
-86 91 -86 40 0 59 -4 60 -12 0 -7 1 -40 2 -73 l2 -60 60 0 60 0 5 -65 5 -65
72 -3 72 -3 3 -72 3 -72 95 0 95 0 3 -68 3 -67 129 0 130 0 0 -70 0 -70 140 0
139 0 3 -82 c2 -57 7 -83 16 -84 6 -1 62 -2 122 -3 l110 -1 0 -55 0 -55 195 0
195 0 0 -65 0 -65 195 0 195 0 0 -70 0 -70 70 0 70 0 1 -97 c0 -54 1 -118 2
-143 l2 -45 68 -3 67 -3 0 -114 0 -115 68 0 68 0 -1 -87 c-1 -49 1 -94 3 -100
3 -9 26 -13 68 -13 l64 0 1 -42 c0 -24 1 -65 2 -93 l2 -50 63 -3 62 -3 0 -54
0 -54 68 -3 67 -3 3 -62 3 -63 64 0 65 0 0 -75 0 -74 73 -3 72 -3 0 -70 0 -70
65 0 65 0 3 212 2 213 -60 0 -60 0 0 220 0 220 30 0 30 0 0 -60 0 -60 40 0 40
0 0 -160 0 -159 68 -3 67 -3 1 -45 c1 -25 2 -53 3 -62 1 -15 11 -18 56 -18
l55 0 0 -150 0 -150 60 0 60 0 0 -85 0 -85 55 0 55 0 0 -65 0 -65 60 0 60 0 0
-90 0 -90 60 0 59 0 3 -132 3 -133 68 -3 67 -3 0 -79 0 -80 64 0 c74 0 76 -2
76 -91 l0 -59 64 0 c72 0 76 -4 76 -92 0 -31 4 -48 13 -49 41 -2 114 -7 125
-8 8 -1 12 -21 12 -66 l0 -65 75 0 75 0 0 -70 0 -70 70 0 69 0 3 -72 3 -73 68
-3 67 -3 0 -64 0 -65 65 0 65 0 0 -65 0 -65 130 0 c117 0 130 -2 131 -17 0
-10 2 -40 2 -68 l2 -50 124 -5 123 -5 2 -70 2 -70 132 -3 132 -3 0 -64 0 -65
140 0 140 0 0 -75 0 -75 130 0 129 0 3 -62 3 -63 100 -2 c55 -1 110 -2 122 -2
20 -1 22 -7 25 -68 2 -38 6 -67 11 -65 4 1 70 2 147 2 l140 0 0 68 0 67 125
-3 125 -3 0 65 0 66 130 0 c97 0 130 3 131 13 1 6 2 39 3 72 l1 60 138 3 137
3 0 64 0 65 130 0 130 0 0 75 0 75 130 0 130 0 0 70 0 70 130 0 130 0 0 65 0
65 70 0 70 0 0 65 0 65 65 0 64 0 3 78 3 77 65 0 65 1 3 67 3 67 74 0 75 0 0
70 c0 69 0 70 28 71 15 1 47 2 72 3 l45 2 3 67 3 67 69 0 70 0 0 75 0 75 70 0
70 0 0 80 0 79 68 3 67 3 2 130 1 130 61 3 61 3 0 89 0 90 60 0 59 0 3 68 3
67 55 0 55 0 1 40 c1 22 2 59 3 82 l1 42 58 3 57 3 -1 148 -1 147 34 1 c84 3
78 -2 81 67 l3 62 64 0 65 0 0 160 0 160 40 0 c25 0 40 5 41 13 1 6 2 28 4 47
1 19 3 41 4 48 0 6 12 12 26 12 l25 0 0 -220 0 -220 -55 0 -55 0 0 -200 0
-200 65 0 65 0 0 65 0 65 70 0 70 0 0 70 0 70 65 0 64 0 3 63 3 62 68 3 67 3
0 54 0 55 65 0 65 0 0 95 0 95 69 0 70 0 0 73 c0 142 -8 127 66 127 36 0 65 3
66 8 0 4 1 54 2 112 l2 105 67 3 67 3 3 142 3 142 68 3 67 3 0 69 0 70 195 0
194 0 3 66 3 66 155 3 c85 1 174 3 197 4 l42 1 3 52 3 53 105 2 c58 1 113 2
123 2 15 1 17 12 17 76 l0 74 138 3 137 3 3 73 3 72 129 0 130 0 0 70 0 70 90
0 90 0 0 70 0 70 85 0 85 0 0 70 0 70 63 0 63 0 -1 68 0 67 73 3 72 3 0 74 0
74 68 3 67 3 3 127 3 127 62 3 62 3 3 128 3 127 64 0 65 0 0 130 0 130 65 0
65 0 0 140 0 139 63 3 62 3 2 175 c0 96 2 187 2 203 1 26 3 27 51 27 l50 0 1
83 c0 45 1 120 2 167 l2 85 53 3 52 3 0 97 c0 53 0 466 1 917 0 451 0 828 0
838 -1 14 -11 17 -61 17 l-59 0 0 98 c0 53 0 114 0 135 l-1 37 -45 0 -45 0 0
140 0 140 -65 0 -65 0 0 200 0 200 -65 0 -65 0 0 145 0 145 -65 0 -64 0 -3
108 -3 107 -50 1 c-27 1 -58 2 -67 3 -15 1 -18 11 -18 71 l0 70 -50 0 -50 0 0
60 0 60 -55 0 -55 0 0 -647 c0 -357 -4 -653 -8 -660 -4 -7 -37 -13 -77 -15
l-70 -3 -3 -332 -2 -333 -60 0 -60 0 0 -205 0 -204 -67 -3 -68 -3 -1 -65 c0
-36 -2 -100 -2 -142 l-2 -78 -65 0 -65 0 0 -75 0 -75 -55 0 -55 0 0 -65 c0
-55 -3 -65 -17 -66 -61 -4 -58 0 -61 -71 l-3 -68 -54 0 -55 0 0 -65 0 -65 -70
0 -70 0 0 -60 0 -60 -60 0 -60 0 0 750 0 750 -24 0 c-13 0 -38 3 -55 6 l-31 7
0 178 0 179 55 0 55 0 0 -45 c0 -53 16 -65 84 -65 l46 0 0 -65 0 -65 65 0 65
0 0 345 0 344 -61 3 -61 3 -1 140 -2 140 -62 3 -63 3 0 134 0 135 -60 0 -60 0
0 120 0 119 108 3 107 3 3 43 3 42 60 0 59 0 0 85 0 85 55 0 55 0 0 130 0 130
-55 0 -55 0 0 -60 0 -60 -215 0 -215 0 -1 53 c-1 28 -1 58 0 65 1 8 -16 12
-59 12 l-60 0 0 205 0 204 57 3 57 3 0 60 1 60 235 1 c129 1 250 2 268 3 l32
1 0 85 0 85 75 0 75 0 0 135 0 135 50 0 50 0 0 135 0 135 60 0 60 0 0 275 0
275 65 0 65 0 0 755 0 755 -63 0 -62 0 3 204 c3 152 1 205 -8 211 -7 4 -31 8
-54 9 l-41 2 -3 142 -3 141 -62 3 -62 3 -3 128 -3 127 -59 0 -59 0 -3 143 -3
142 -47 3 -47 3 -3 67 -3 67 -57 3 -58 3 0 74 0 74 -52 3 -53 3 -3 68 -3 67
-39 0 -39 0 -3 68 -3 67 -62 -2 -62 -3 -3 73 -3 72 -62 3 -63 3 0 69 0 70 -70
0 -70 0 0 70 0 69 -67 3 -68 3 -3 68 -3 67 -59 0 -59 0 -3 68 -3 67 -67 3 -68
3 0 -211 0 -210 -65 0 -65 0 -1 -97 c-1 -54 -2 -111 -4 -128 -1 -16 -3 -38 -4
-48 -1 -14 -8 -18 -33 -16 -86 6 -87 5 -90 -63 l-3 -63 -62 -3 -62 -3 -3 -67
-3 -67 -52 -3 -52 -3 -3 -72 -3 -72 -95 -5 -95 -5 -3 -67 -3 -68 -54 0 -54 0
-3 -67 -3 -68 -137 -3 -138 -3 0 -69 0 -70 -120 0 -120 0 0 -70 0 -70 -65 0
-65 0 0 -65 0 -65 -135 0 -135 0 0 -70 0 -70 -70 0 -70 0 0 -65 0 -65 -45 -1
c-25 -1 -49 -3 -55 -4 -5 -1 -17 -3 -25 -4 -12 -1 -15 -15 -15 -66 l0 -65 -65
0 -65 0 0 -75 c0 -64 -2 -75 -17 -76 -33 -1 -108 -6 -120 -8 -9 -1 -13 -53
-15 -208 l-3 -208 -45 1 c-99 3 -90 -3 -90 69 l0 64 -87 3 -88 3 -3 68 -3 67
-94 0 -95 0 0 74 0 74 -155 7 -155 7 0 69 0 69 -135 0 -135 0 0 70 0 70 -170
0 -170 0 0 65 0 65 -435 0 -435 0 0 -65 0 -64 -157 -3 -158 -3 -3 -62 c-2 -40
-7 -63 -15 -64 -20 -2 -61 -2 -84 0 -21 1 -23 6 -23 66 l0 65 -160 0 -160 0 0
65 0 65 -430 0 -430 0 0 -65 0 -65 -175 0 -174 0 -3 -67 -3 -68 -130 -5 -129
-5 -4 -65 c-2 -36 -5 -66 -5 -66 -1 -1 -69 -4 -152 -7 -82 -4 -151 -6 -152 -7
-1 0 -3 -33 -5 -72 l-3 -73 -87 -3 -87 -3 -3 -67 c-2 -44 -7 -67 -15 -68 -7
-1 -49 -2 -93 -3 l-80 -1 0 -65 0 -65 -70 0 -70 0 0 210 0 210 -70 0 -70 0 0
75 0 75 -70 0 -70 0 0 65 0 64 -62 3 -63 3 -3 68 -3 67 -69 0 -69 0 -3 68 -3
67 -132 3 -133 3 0 64 0 65 -65 0 -65 0 0 70 0 70 -125 0 -125 0 0 70 0 70
-135 0 -135 0 0 70 0 70 -60 0 -59 0 -3 68 -3 67 -87 3 -88 3 0 74 0 74 -62 3
-63 3 -5 70 -5 70 -55 0 -55 0 -3 63 -3 62 -64 0 -64 0 -3 143 -3 142 -62 3
-63 3 -2 207 -3 207 -67 3 c-65 3 -68 2 -70 -20z m-128 -1113 l0 -135 70 0 70
0 0 -70 0 -70 43 0 c82 0 87 -4 87 -76 l0 -64 70 0 70 0 0 -65 0 -64 63 -3 62
-3 3 -67 c3 -77 -13 -68 132 -73 41 -2 83 -3 93 -4 14 -1 17 -11 17 -66 l0
-65 85 0 84 0 3 -67 3 -68 133 -3 132 -3 0 -64 0 -65 70 0 70 0 0 -70 0 -69
123 -3 122 -3 3 -77 3 -78 64 0 65 0 0 -65 c0 -51 3 -65 15 -66 8 -1 24 -3 35
-4 11 -1 34 -3 50 -4 l30 -1 0 -70 0 -70 50 0 50 0 0 -200 0 -200 80 0 80 0 0
-335 0 -335 -35 0 -35 0 0 -70 0 -69 -57 -3 -58 -3 0 -140 0 -140 63 -3 62 -3
0 76 0 75 40 0 c39 0 40 1 41 38 1 20 3 44 4 52 1 8 3 20 4 27 0 7 23 13 59
15 l57 3 3 68 c2 45 7 67 15 66 7 -1 36 -1 65 0 l52 1 0 70 0 70 65 0 65 0 0
65 0 65 70 0 70 0 0 80 0 80 35 0 35 0 0 55 0 54 103 3 102 3 -1 68 0 67 63 0
63 0 0 70 0 70 115 0 115 0 1 33 c4 99 1 92 39 95 44 4 47 10 46 77 l-1 55
123 0 122 0 0 70 0 70 160 0 160 0 0 70 0 70 370 0 369 0 3 -67 3 -68 198 -3
197 -2 0 -71 0 -70 133 3 132 3 3 68 3 67 194 0 195 0 0 70 0 70 375 0 375 0
0 -70 0 -70 155 0 154 0 3 -67 3 -68 128 -3 127 -3 1 -47 c1 -26 1 -55 0 -64
-2 -15 6 -18 43 -18 37 0 46 -4 47 -17 1 -10 3 -34 4 -53 2 -19 4 -40 4 -47 1
-9 32 -13 104 -15 l102 -3 3 -67 3 -68 59 0 59 0 3 -67 3 -68 93 -3 c71 -2 92
-6 92 -17 0 -9 13 -15 38 -17 l37 -3 3 -117 3 -118 69 0 70 0 0 -65 0 -65 65
0 65 0 1 -55 c1 -30 2 -61 3 -67 1 -9 24 -14 69 -16 l67 -3 0 -69 0 -70 65 0
65 0 0 -65 0 -65 40 0 40 0 0 -69 c0 -39 3 -72 8 -74 4 -3 33 -2 65 1 l58 5
-3 136 -3 136 -57 3 -58 3 0 69 0 70 -40 0 -40 0 0 335 0 335 80 0 80 0 0 200
0 200 55 0 55 0 0 70 0 70 60 0 60 0 0 70 0 70 70 0 c49 0 70 4 71 13 1 6 2
35 4 62 1 28 3 55 4 62 1 9 35 13 119 15 l117 3 3 73 3 72 69 0 70 0 0 65 0
65 130 0 c147 0 130 -11 134 90 l1 45 82 3 82 3 3 67 3 67 120 0 120 1 3 67
c2 43 7 67 15 68 7 0 32 1 57 2 l45 2 5 65 5 65 68 3 67 3 0 64 0 65 48 1 c26
1 56 2 67 3 18 1 20 9 23 74 l3 72 59 0 60 0 0 135 0 135 65 0 65 0 0 -135 0
-134 68 -3 c44 -2 67 -7 68 -15 1 -7 2 -37 3 -67 l1 -55 38 -3 37 -3 -2 -67
-2 -68 69 0 70 0 2 -202 3 -203 68 -3 67 -3 0 -279 c0 -259 1 -280 18 -282 9
0 37 -1 62 -2 l45 -1 3 -822 2 -823 -37 2 c-21 1 -52 1 -70 0 l-32 -2 2 -205
c2 -176 0 -205 -13 -206 -8 -1 -22 -2 -30 -3 -8 -2 -23 -3 -32 -4 -15 -2 -18
-13 -18 -72 l0 -70 -132 0 -133 0 3 -65 4 -65 -136 0 -136 0 0 -65 0 -65 -55
0 -55 0 0 -70 0 -70 -65 0 -65 0 0 -70 0 -70 -32 -1 c-18 -1 -49 -2 -68 -3
l-35 -1 -3 -350 c-1 -192 0 -360 3 -372 4 -18 12 -23 38 -21 53 2 79 -1 73
-11 -4 -5 -1 -11 5 -13 6 -2 13 -41 16 -91 l6 -87 58 0 59 0 0 -75 0 -75 60 0
60 0 0 -140 0 -139 68 -3 67 -3 0 -75 0 -75 -66 -3 -66 -3 1 63 1 63 -57 3
c-57 3 -58 4 -58 32 l0 30 -65 0 -65 0 0 60 0 60 -65 0 -65 0 0 -145 0 -145
48 -2 c26 0 54 -1 62 -2 13 -1 15 -30 18 -184 l2 -183 58 2 57 3 3 -207 2
-207 60 0 60 0 0 -590 0 -590 -60 0 -60 0 -2 168 -3 167 -57 3 -58 3 0 69 0
70 -65 0 -65 0 0 -410 0 -410 -30 0 -30 0 0 -199 0 -200 -52 -3 -53 -3 -3
-137 -3 -138 -64 0 -65 0 0 210 0 210 -50 0 -49 0 -3 128 -3 127 -37 3 -38 3
0 60 0 59 -50 0 -50 0 0 -255 0 -255 -65 0 -65 0 0 -140 0 -139 -77 -3 -78 -3
0 -62 0 -63 -62 0 -63 0 -2 -42 c0 -24 -1 -49 -1 -55 1 -8 -14 -13 -38 -14
-21 -1 -49 -2 -61 -2 -23 -1 -23 1 -26 126 l-3 127 -69 0 -70 0 0 70 0 70 -65
0 -65 0 0 65 0 65 -130 0 -130 0 0 70 0 70 -190 0 -191 0 3 136 3 136 80 2 80
1 3 113 3 112 67 0 67 0 0 53 0 52 68 3 67 3 0 54 0 55 120 0 120 0 0 55 0 55
120 0 120 0 0 55 0 54 63 3 62 3 3 73 3 72 64 0 65 0 0 130 0 130 45 0 45 0 0
135 0 135 50 0 50 0 -2 403 -3 402 -55 0 -55 0 -2 -175 c-1 -96 -2 -185 -3
-197 0 -19 -6 -22 -47 -25 l-48 -3 3 -127 4 -128 -24 -1 c-12 -1 -40 0 -60 1
l-38 2 0 -76 0 -76 -64 0 c-72 0 -76 -5 -76 -87 l0 -43 -65 0 -65 0 0 -70 0
-69 -132 -3 -133 -3 -1 -65 -1 -65 -124 -3 c-68 -1 -126 -7 -129 -12 -4 -6 -6
-35 -5 -65 l2 -55 -41 -1 c-23 -1 -79 -2 -126 -4 l-85 -2 3 -67 4 -66 -71 0
-71 0 0 -65 0 -65 -60 0 -60 0 0 -125 0 -125 -55 0 -55 0 0 -144 0 -145 -32
-3 -33 -3 -2 -135 c-1 -74 -2 -165 -2 -202 l-1 -68 -60 0 -60 0 0 -135 0 -135
-65 0 -65 0 0 -130 0 -129 -67 -3 -66 -3 -1 -290 -1 -290 68 -3 67 -3 0 141 0
140 65 0 65 0 0 95 0 94 67 3 67 3 2 50 c1 28 2 58 3 68 1 14 11 17 61 17 l59
0 3 63 3 62 68 3 67 3 0 64 c0 60 2 65 23 66 29 2 271 2 325 0 l42 -1 0 -65 0
-65 70 0 70 0 0 -65 0 -65 60 0 60 0 0 -65 0 -64 -131 -3 -132 -3 -1 -60 -1
-60 -62 -3 -63 -3 0 -64 c0 -72 8 -65 -80 -69 l-35 -1 -3 -62 -3 -62 -62 -3
-62 -3 -3 -177 -2 -178 -65 0 -65 0 0 -205 0 -205 -55 0 -55 0 0 -270 0 -270
-22 -1 c-34 -2 -91 -2 -110 0 -15 1 -18 12 -18 71 l0 70 -70 0 -69 0 -3 68
c-2 44 -7 67 -15 68 -7 1 -38 2 -68 3 l-55 1 0 65 0 65 -65 0 -65 0 0 65 0 65
-135 0 -134 0 -3 68 -3 67 -112 2 c-157 2 -155 4 -151 -71 l3 -61 68 -3 67 -3
0 -64 0 -65 65 0 65 0 0 -70 0 -70 70 0 70 0 0 -70 0 -70 65 0 65 0 0 -70 0
-70 60 0 60 0 1 -67 c0 -38 1 -97 2 -133 l2 -65 68 -3 67 -3 0 -139 0 -140 65
0 65 0 0 -430 0 -430 -65 0 -65 0 -2 -178 -3 -177 -62 2 -63 2 0 -139 0 -140
-135 0 -135 0 0 -60 0 -60 -165 -2 c-91 -1 -180 -2 -197 -2 l-33 -1 0 60 0 60
-192 3 -193 2 0 71 0 70 -112 -1 c-62 -1 -155 -1 -205 -1 l-93 1 0 65 0 65
-530 0 -530 0 0 -65 0 -65 -200 0 -200 0 0 -70 0 -70 -195 0 -195 0 0 -70 0
-70 -200 0 -200 0 0 65 0 65 -130 0 -130 0 0 140 0 140 -65 0 -65 0 -2 178 -3
177 -67 3 -68 3 0 429 0 429 68 3 67 3 0 135 0 135 65 5 65 5 3 133 3 132 59
0 60 0 0 70 0 70 65 0 c72 0 67 -7 68 88 1 58 -3 56 90 53 l47 -1 0 70 0 70
70 0 70 0 0 65 0 64 68 3 67 3 -1 63 -1 62 124 0 124 0 -3 66 -3 65 -120 1
-120 1 -3 -62 c-2 -49 -6 -61 -20 -62 -9 -1 -70 -1 -134 0 l-118 1 0 -71 0
-71 -112 4 c-153 7 -148 9 -148 -68 l0 -64 -70 0 -70 0 0 -65 0 -65 -70 0 -70
0 0 -70 0 -69 -67 -3 -68 -3 -3 -65 c-2 -36 -8 -68 -15 -72 -7 -4 -38 -8 -69
-8 l-58 0 0 275 0 275 -60 0 -60 0 0 205 0 205 -65 0 -65 0 0 175 0 175 -37 1
c-21 1 -50 2 -65 2 -28 1 -28 2 -28 64 0 49 -3 63 -15 64 -8 1 -24 3 -35 4
-11 1 -29 3 -40 4 -18 1 -20 8 -20 66 l0 65 -65 0 -65 0 0 65 0 65 -140 0
-140 0 0 65 0 65 65 0 65 0 0 65 0 65 70 0 70 0 0 65 0 65 53 1 c72 2 253 2
305 0 l42 -1 0 -65 0 -66 65 7 64 7 3 -69 3 -69 68 -3 67 -3 0 -70 0 -71 28 2
c15 1 44 2 65 1 l39 -1 -5 -90 -4 -90 63 0 64 0 0 -145 0 -146 68 3 67 3 0
290 0 290 -62 3 -63 3 -1 117 c-1 64 -1 123 0 130 1 8 -17 12 -64 12 l-65 0 0
135 0 135 -60 0 -60 0 0 205 0 205 -35 0 -35 0 0 140 0 140 -55 0 -54 0 -3
133 -3 132 -60 0 -60 0 3 62 4 62 -68 3 -68 3 -1 65 0 65 -122 3 -122 3 -3 67
-3 67 -130 0 -130 0 -2 35 c-1 19 -2 50 -2 68 l-1 32 -135 0 -135 0 0 70 0 70
-65 0 -65 0 0 65 0 65 -59 0 c-67 0 -69 2 -66 92 l2 57 -61 3 -61 3 0 125 0
125 -47 3 -48 3 0 195 0 194 -60 0 -60 0 2 -467 3 -468 63 -3 62 -3 0 -124 0
-125 30 0 30 0 0 -70 0 -70 60 0 60 0 0 -70 c0 -78 -7 -72 85 -75 l40 -1 3
-57 3 -57 114 0 115 0 0 -55 c0 -50 2 -55 23 -55 12 -1 69 -2 127 -3 l105 -2
3 -52 3 -53 60 0 59 0 0 -55 0 -55 70 0 70 0 0 -113 0 -113 68 1 c110 1 102
12 102 -141 l0 -134 -190 0 c-183 0 -190 -1 -191 -20 -1 -11 -3 -24 -4 -30 -1
-5 -3 -28 -4 -50 l-1 -39 -122 -3 -123 -3 0 -60 0 -60 -65 -5 -65 -5 -3 -67
-3 -68 -64 0 c-36 0 -66 -3 -66 -7 -4 -24 -7 -79 -8 -160 l-1 -93 -60 0 -60 0
0 60 0 60 -70 0 -69 0 -3 68 -3 67 -67 3 -68 3 -1 77 c-2 67 -5 138 -8 180 -1
8 -20 12 -61 12 l-60 0 0 255 0 255 -50 0 -50 0 0 -60 0 -60 -40 0 -39 0 -3
-127 -3 -128 -55 -5 -55 -5 0 -205 0 -205 -62 -3 -63 -3 0 136 0 135 -55 0
-56 0 1 163 c1 268 4 245 -27 249 l-28 3 -1 390 c0 215 1 398 4 408 4 14 16
17 68 17 l64 0 0 70 0 70 -65 0 -65 0 0 -70 0 -70 -65 0 -65 0 0 -70 0 -70
-60 0 -60 0 0 -170 0 -170 -60 0 -60 0 0 590 0 590 55 0 55 0 0 205 0 205 65
0 65 0 0 175 0 175 38 1 c20 1 47 1 60 2 22 0 22 1 22 153 l0 154 -65 0 -65 0
0 -60 0 -60 -65 0 -65 0 0 -40 0 -40 -54 0 -55 0 -3 -52 -3 -53 -62 -3 -63 -3
0 81 0 81 48 -1 c90 -3 82 -17 82 140 l0 140 60 0 60 0 0 75 0 74 63 3 62 3 3
93 c2 74 6 92 18 92 8 0 13 4 10 9 -3 5 15 9 39 9 29 1 45 -3 46 -11 1 -7 4 1
8 17 3 16 5 189 3 383 l-2 353 -60 0 -60 0 0 54 c0 82 -3 86 -71 86 l-59 0 0
70 0 70 -60 0 -60 0 0 65 0 65 -130 0 c-97 0 -130 3 -131 13 -4 28 -6 64 -8
92 l-1 30 -125 -2 -125 -3 0 70 0 69 -52 3 -53 3 -3 207 -2 207 -63 3 -62 3 0
817 c0 811 0 818 20 819 25 1 76 5 93 7 9 2 12 65 12 282 l0 279 73 3 72 3 2
170 c1 94 2 185 3 203 l0 32 65 0 65 0 0 70 0 70 40 0 40 0 0 70 0 70 65 0 65
0 0 135 0 135 60 0 60 0 0 -135z m-1930 -6515 l0 -480 55 0 55 0 0 -140 0
-140 60 0 60 0 0 -210 0 -210 70 0 70 0 0 -140 0 -140 65 0 64 0 3 -137 c3
-114 6 -138 18 -139 8 -1 43 -2 78 -3 l62 -1 0 -100 0 -99 68 -3 67 -3 1 -55
1 -55 66 -3 67 -3 0 -64 c0 -72 -6 -67 85 -69 l50 -1 0 -65 1 -65 82 -3 82 -3
0 -34 0 -35 96 0 96 0 -7 -70 -6 -70 140 0 141 0 0 -65 0 -65 260 0 260 0 0
-70 c0 -66 1 -70 23 -71 12 0 391 -2 842 -3 451 -2 826 -4 833 -5 8 -1 12 -21
12 -66 l0 -65 60 0 60 0 0 -70 0 -69 66 -3 66 -3 -1 -132 -2 -133 56 0 55 0 0
-265 0 -265 -760 0 -760 0 0 65 0 65 -270 0 -270 0 -1 33 c0 17 -2 46 -2 62
l-2 30 -202 3 -202 2 -3 68 -3 67 -187 3 -188 2 0 65 0 64 -117 3 -118 3 -3
68 -3 67 -134 0 -135 0 0 70 0 70 -65 0 -65 0 0 65 0 65 -65 0 -64 0 -3 73 -3
72 -62 3 -63 3 0 124 0 125 -70 0 -70 0 0 80 0 80 -65 0 -65 0 0 129 c0 144 2
141 -82 141 l-38 0 0 135 0 135 -65 0 -65 0 0 135 0 135 -60 0 -60 0 0 -205
c0 -157 3 -205 13 -206 6 -1 32 -2 57 -3 l45 -2 3 -147 3 -147 59 0 60 0 0
-125 0 -125 30 0 30 0 0 -135 0 -135 28 -1 c15 -1 44 -1 65 -1 l37 0 0 -69 0
-69 60 0 60 0 0 -135 0 -135 70 0 70 0 0 -70 0 -70 65 0 65 0 0 -65 0 -65 70
0 70 0 0 -70 0 -70 108 0 107 0 0 -62 0 -63 73 -3 72 -3 0 -64 0 -65 100 0
100 0 0 -70 0 -70 48 -1 c26 -1 88 -2 137 -3 l90 -1 2 -70 1 -70 256 -1 c141
0 259 -3 262 -7 4 -3 7 -34 8 -69 l1 -63 215 -1 c118 -1 238 -2 267 -3 l52 -1
3 -67 3 -68 585 -2 c322 -1 690 -2 818 -2 l232 -1 0 -70 0 -70 -1155 0 c-919
0 -1156 3 -1154 13 1 6 1 38 0 70 l-1 57 -195 0 -195 0 0 75 0 75 -135 0 -134
0 -3 68 -3 67 -100 0 -100 0 -3 73 -3 72 -109 0 -109 0 -3 68 -3 67 -92 3 -93
3 0 64 0 65 -65 0 -65 0 0 65 0 65 -52 1 c-94 2 -85 -6 -87 78 l-1 50 -42 3
-43 3 -5 65 -5 65 -47 3 -48 3 0 70 0 69 -70 0 -70 0 0 70 0 70 -55 0 -55 0 0
65 0 65 -35 0 -35 0 0 75 0 75 -50 0 c-48 0 -50 1 -50 28 -1 15 -2 81 -3 147
l-2 120 -60 0 -60 1 -3 247 -2 247 -65 0 c-45 0 -65 4 -65 13 -1 6 -1 381 -2
832 l-1 820 57 3 56 3 0 134 0 135 50 0 50 0 1 73 c0 39 0 159 -1 265 0 106 2
197 5 203 4 5 33 9 66 9 l59 0 0 -480z m14450 205 l0 -275 50 0 50 0 0 -135 0
-135 60 0 60 0 -2 -832 -3 -832 -62 3 c-63 2 -63 2 -64 -26 -4 -90 -8 -244 -8
-350 l-1 -123 -60 0 -60 0 0 -155 0 -155 -55 0 -54 0 -3 -67 -3 -68 -32 -3
-33 -3 0 -65 0 -64 -61 0 -61 0 4 -67 3 -68 -67 -3 -68 -3 0 -69 0 -70 -55 0
-55 0 0 -65 0 -65 -40 0 -40 0 0 -70 0 -70 -65 0 -65 0 0 -65 0 -65 -65 0 -65
0 0 -67 0 -68 -95 3 -95 3 0 -70 0 -70 -112 -3 -113 -3 -2 -50 c-1 -27 -2 -58
-2 -67 -1 -16 -13 -18 -101 -18 -113 0 -102 9 -103 -92 l0 -48 -138 0 -138 0
-3 -72 -3 -73 -192 -3 -193 -2 0 -70 0 -70 -1152 2 -1153 3 1 40 c1 22 2 54 3
70 l1 30 818 0 817 1 0 69 0 70 263 1 c144 0 264 3 267 5 2 3 5 33 6 67 l2 62
258 0 259 0 0 70 c0 39 3 70 8 71 4 1 63 2 132 4 69 1 131 3 138 4 8 1 12 22
12 71 l0 69 98 3 97 3 0 60 0 60 73 3 72 3 0 64 0 65 75 0 74 0 3 68 3 67 63
0 c36 1 66 6 70 12 4 6 7 37 7 67 l-1 56 63 0 63 0 0 70 0 70 70 0 70 0 0 70
0 70 35 1 c89 3 79 -12 85 133 l5 130 65 0 65 1 3 137 3 137 57 3 57 3 0 125
0 125 30 1 c17 1 45 2 63 2 l32 2 0 140 c0 105 3 140 13 141 10 2 42 4 95 8 9
1 12 49 12 206 l0 206 -62 -3 c-72 -3 -65 15 -67 -165 l-1 -103 -60 0 -59 0
-3 -137 -3 -138 -50 -2 c-27 -1 -56 -2 -62 -2 -10 -1 -13 -34 -13 -131 l0
-130 -60 0 -60 0 0 -85 0 -85 -71 0 -70 0 1 -62 c1 -35 1 -91 1 -125 l-1 -63
-65 0 -64 0 -3 -67 -3 -68 -62 -3 -63 -3 0 -64 0 -65 -65 0 -65 0 0 -70 0 -70
-135 0 -135 0 0 -70 0 -70 -120 0 -120 0 0 -65 0 -65 -187 -2 -188 -3 -3 -67
-3 -68 -204 0 -205 0 0 -65 0 -65 -270 0 -270 0 0 -65 0 -65 -765 0 -765 0 0
265 0 265 55 0 54 0 3 133 3 132 40 1 c92 3 85 -4 85 74 l0 70 65 0 64 0 3 68
3 67 848 -2 847 -1 0 74 0 74 260 0 260 0 0 65 0 64 128 0 c70 -1 134 0 142 0
13 1 15 14 12 71 l-4 69 94 3 93 3 3 37 3 38 77 -3 77 -2 5 65 5 65 50 -1 c74
0 75 0 75 72 l0 64 70 0 70 0 0 60 0 60 65 0 65 0 0 100 0 99 78 3 77 3 3 138
3 137 64 0 65 0 0 140 0 140 75 0 76 0 -2 208 -1 207 61 3 61 3 0 139 0 140
55 0 55 0 0 480 0 480 60 0 60 0 0 -275z m-11420 -5392 c-5 -97 -8 -93 65 -93
l65 0 -2 -202 -3 -203 -65 0 -65 0 1 63 c0 49 -3 62 -15 64 -9 0 -20 2 -26 3
-5 2 -27 3 -47 4 l-37 1 -3 137 -3 137 -67 -3 -68 -2 0 70 0 71 136 0 136 0
-2 -47z m940 -88 l0 -135 90 0 90 0 0 -42 c1 -24 1 -114 0 -200 l-1 -157 68
-3 68 -3 3 -217 2 -218 -65 0 -65 0 -2 58 c-1 31 -2 65 -1 75 0 15 -10 17 -72
17 l-72 0 2 198 c1 108 0 203 -3 210 -3 8 -30 12 -87 12 l-83 0 -1 270 -2 270
66 0 65 0 0 -135z m6510 -135 l0 -269 -87 -3 -88 -3 -3 -207 -2 -208 -65 0
-64 0 -3 -72 -3 -73 -65 0 -65 0 0 215 0 215 66 3 65 3 0 197 -1 197 93 3 92
3 0 134 0 135 65 0 65 0 0 -270z m1080 200 l0 -70 -68 0 -68 0 1 -132 0 -133
-67 -3 -68 -3 0 -64 0 -65 -65 0 -65 0 0 200 0 200 70 0 70 0 0 70 0 70 130 0
130 0 0 -70z m-6889 -1062 c2 -306 3 -323 17 -324 6 -1 37 -2 67 -3 l55 -1 0
-220 0 -220 -65 0 -65 0 0 145 0 145 -70 0 -70 0 0 330 0 330 65 0 65 0 1
-182z m5107 -145 l-3 -328 -67 -3 -68 -3 0 -144 0 -145 -65 0 -65 0 0 220 0
219 68 3 67 3 3 253 2 252 65 0 65 0 -2 -327z m-1998 -123 l0 -60 162 -2 161
-3 -2 -72 -2 -73 185 0 c117 0 186 -4 187 -10 1 -5 1 -19 1 -30 0 -11 0 -42
-1 -70 l-1 -50 -60 0 -60 0 0 -65 0 -65 -190 0 -190 0 0 65 0 65 -160 0 -160
0 0 70 0 70 -485 0 -485 0 0 -70 0 -70 -165 0 -165 0 0 -65 0 -65 -190 0 -190
0 0 65 0 65 -65 0 -65 0 0 80 0 80 190 0 189 0 3 73 3 72 158 3 157 3 0 59 0
60 620 0 620 0 0 -60z m-2340 -591 l0 -91 38 2 c20 1 49 2 64 1 l27 -1 3 -157
3 -158 66 -5 66 -5 -1 -193 c-1 -106 1 -198 5 -203 3 -6 34 -10 68 -10 l62 0
-3 -72 -3 -72 -62 -3 -63 -3 0 76 0 75 -70 0 -70 0 0 145 0 145 -65 0 -65 0 0
155 0 155 -65 0 -65 0 0 155 0 155 65 0 65 0 0 -91z m3570 -64 l0 -155 -65 0
-65 0 0 -155 0 -155 -70 0 -70 0 0 -145 0 -145 -70 0 -70 0 0 -70 0 -70 -65 0
-65 0 0 70 0 69 68 3 67 3 3 213 2 212 70 0 70 0 0 150 c0 170 -9 154 88 151
l42 -2 0 91 0 90 65 0 65 0 0 -155z m-2310 -476 l0 -129 70 0 70 0 0 -145 0
-145 70 0 70 0 0 275 0 275 175 0 175 0 0 -275 0 -275 70 0 69 0 3 143 3 142
50 2 c28 1 58 2 68 2 15 1 17 14 17 131 l0 130 65 0 65 0 1 -82 c0 -46 2 -230
2 -410 l2 -328 -67 0 -68 0 0 -135 0 -135 -70 0 c-78 0 -73 5 -70 -82 l1 -47
-73 -3 -72 -3 -2 -45 c-2 -101 19 -90 -174 -90 l-169 0 -3 68 -3 67 -67 3 -68
3 0 64 0 65 -70 0 -70 0 0 135 0 135 -65 0 -65 0 0 413 0 412 65 -3 65 -4 0
-129z m-560 66 l0 -64 68 -3 67 -3 3 -342 2 -343 -70 0 -70 0 0 135 0 135 -65
0 -65 0 0 275 0 275 65 0 65 0 0 -65z m2170 -210 l0 -275 -70 0 -70 0 0 -135
0 -135 -65 0 -65 0 0 345 0 345 65 0 65 0 0 65 0 65 70 0 70 0 0 -275z m-282
-623 l3 -72 -66 0 -65 0 -2 43 c-1 23 -2 53 -3 67 -1 14 -1 27 1 30 1 3 31 5
66 5 l63 -1 3 -72z m-1598 -2 l0 -70 -70 0 -70 0 0 70 0 70 70 0 70 0 0 -70z"/>
<path d="M4940 16555 l0 -134 -62 -3 -63 -3 -3 -557 -2 -557 67 -3 68 -3 3
-202 2 -203 65 0 65 0 0 395 0 395 50 0 50 0 0 -190 0 -189 73 -3 72 -3 2
-160 c1 -88 6 -171 12 -185 5 -14 10 -19 10 -12 1 21 52 14 58 -7 3 -12 15
-21 32 -23 25 -3 26 -5 29 -80 l3 -78 59 0 c41 0 60 -4 61 -12 1 -7 2 -31 3
-53 2 -57 10 -65 67 -65 l49 0 0 -65 0 -65 65 0 65 0 0 -70 0 -70 50 -1 c28
-1 56 -2 63 -3 8 -1 13 -25 15 -73 3 -65 5 -73 22 -73 19 0 20 -8 20 -205 l0
-205 65 0 65 0 0 65 0 64 73 3 72 3 3 68 3 67 59 0 60 0 2 43 c0 23 2 47 3 52
2 6 3 18 4 28 1 14 11 17 61 17 l60 0 0 145 0 145 60 0 60 0 0 335 0 335 -60
0 -60 0 0 75 0 75 -60 0 -59 0 -3 68 -3 67 -40 0 -40 0 2 62 c2 72 1 73 -114
73 l-73 0 0 64 c0 72 -4 76 -76 76 l-44 0 0 60 0 60 -85 0 -85 0 0 70 0 70
-125 0 -125 0 0 70 0 70 -70 0 -70 0 0 69 c0 78 -3 81 -92 81 l-48 0 0 75 0
75 -65 0 -64 0 -3 68 -3 67 -57 3 -58 3 0 64 0 65 -70 0 -70 0 0 -135z"/>
<path d="M15510 16630 c0 -68 -12 -80 -79 -80 l-41 0 0 -65 0 -65 -65 0 -64 0
-3 -72 -3 -73 -67 -3 -68 -3 0 -74 0 -75 -70 0 -70 0 0 -70 0 -70 -125 0 -125
0 0 -70 0 -70 -90 0 -90 0 0 -65 0 -65 -55 0 -55 0 0 -65 c0 -64 0 -65 -27
-66 -16 -1 -48 -3 -73 -4 -25 -1 -57 -3 -72 -4 -27 -1 -28 -2 -28 -61 0 -41
-4 -60 -12 -61 -7 -1 -24 -2 -38 -2 -23 -2 -25 -6 -28 -64 l-3 -63 -54 0 -55
0 0 -80 0 -80 -65 0 -64 0 3 -327 c2 -181 4 -331 5 -335 0 -5 26 -8 56 -8 37
0 55 -4 56 -12 2 -14 6 -157 8 -230 l1 -48 63 0 62 0 2 -56 c2 -81 4 -84 68
-84 l55 0 0 -70 0 -70 70 0 70 0 0 -65 0 -65 65 0 65 0 0 210 0 210 25 0 c24
0 25 2 25 69 l0 68 38 -3 c20 -1 49 0 65 3 26 4 27 6 27 74 l0 69 65 0 65 0 0
43 c0 76 7 86 59 89 l46 3 3 58 3 57 59 0 59 0 3 138 3 137 78 3 77 3 0 140 0
140 53 -1 c28 -1 60 -1 70 -1 16 1 17 17 17 191 l0 190 45 0 45 0 2 -392 3
-393 65 0 65 0 3 202 2 203 63 -2 62 -2 0 559 0 560 -62 3 -63 3 0 134 0 135
-65 0 -65 0 0 -60z"/>
<path d="M8150 14410 l0 -70 -190 0 -190 0 0 -70 0 -70 -65 0 -65 0 0 -70 0
-70 65 0 65 0 0 70 0 70 398 -2 397 -3 3 -67 3 -68 64 0 64 0 3 -67 c2 -45 7
-68 16 -69 6 -1 35 -2 62 -3 l50 -1 0 -65 0 -65 65 0 64 0 3 -67 c3 -75 -4
-70 91 -72 l37 -1 0 -65 0 -65 65 0 66 0 -3 68 -3 67 -62 3 -63 3 0 199 0 199
-62 3 -63 3 -1 65 -1 65 -67 3 -66 3 0 69 0 69 -62 3 -63 3 -3 68 -3 67 -274
0 -275 0 0 -70z"/>
<path d="M11880 14410 l0 -70 -60 0 c-55 0 -60 -2 -62 -22 -1 -13 -2 -30 -4
-38 -1 -8 -2 -30 -3 -47 l-1 -33 -65 0 -65 0 0 -70 0 -69 -62 -3 -63 -3 -1
-175 c0 -96 -1 -185 -2 -197 -2 -20 -8 -22 -64 -25 l-62 -3 -1 -53 c-1 -28 2
-57 5 -62 3 -5 34 -12 68 -16 l62 -5 0 70 0 71 65 0 65 0 0 65 0 65 60 0 c55
0 60 2 61 23 1 12 2 27 4 32 1 6 3 25 3 43 l2 32 60 0 60 0 0 70 0 70 70 0 70
0 0 70 0 70 400 0 400 0 0 -70 0 -70 65 0 66 0 -3 68 -3 67 -62 3 -63 3 0 69
0 70 -195 0 -195 0 0 70 0 70 -275 0 -275 0 0 -70z"/>
<path d="M7204 13917 c-5 -14 1 -115 7 -122 8 -6 92 -12 110 -8 18 5 20 13 17
72 l-3 66 -63 3 c-47 2 -64 -1 -68 -11z"/>
<path d="M13257 13923 c-4 -3 -7 -35 -7 -70 l0 -63 65 0 65 0 0 -65 0 -65 60
0 60 0 0 -145 0 -145 -60 0 -60 0 0 -70 0 -70 -285 0 -285 0 0 -60 0 -60 -135
0 -135 0 0 -70 0 -70 -130 0 -130 0 0 -70 0 -70 -70 0 -70 0 0 -65 0 -65 -125
0 -125 0 0 -65 0 -65 -60 0 -60 0 0 -65 0 -65 -135 0 -135 0 0 120 0 120 -65
0 -65 0 0 285 0 285 -65 0 -65 0 0 -140 0 -140 -70 0 -70 0 0 -480 0 -479 68
-3 67 -3 3 -127 3 -128 -71 0 -70 0 0 55 0 55 -65 0 -65 0 0 80 0 80 -65 0
-64 0 -3 133 -3 132 -52 3 -53 3 0 209 c0 236 6 220 -85 217 l-50 -2 0 -420 0
-420 60 -1 c37 -1 60 -5 61 -13 1 -6 2 -36 3 -66 l1 -55 60 0 60 0 0 -65 0
-65 200 0 200 0 0 65 0 65 60 0 60 0 0 -60 0 -60 48 -1 c26 -1 63 -2 82 -4 19
-2 54 -3 78 -4 l42 -1 0 -125 0 -124 -57 -3 -58 -3 -3 -137 -3 -137 -62 -3
-62 -3 0 -262 0 -263 -57 0 -58 0 -2 -360 -3 -360 63 0 62 0 0 213 0 212 62 0
63 0 3 202 2 202 63 3 62 3 3 133 3 132 59 0 c68 0 74 8 69 88 l-3 47 62 3 62
3 1 59 c1 33 2 66 3 73 1 12 13 14 94 16 l42 1 0 68 0 69 590 -2 590 -1 0 63
0 62 128 3 127 3 0 65 0 65 -177 3 -178 2 0 -60 0 -60 -335 0 -335 0 0 60 0
60 125 0 125 0 0 50 0 49 98 3 97 3 0 45 0 45 90 5 90 5 3 53 3 52 50 0 49 0
0 40 c0 34 3 40 23 41 65 3 62 0 65 67 l3 62 34 0 35 0 0 70 0 70 70 0 70 0 0
195 0 195 160 0 160 0 0 -60 0 -59 62 -3 62 -3 1 -70 1 -70 57 -3 57 -3 0 356
0 355 -65 0 -65 0 0 135 0 135 -60 0 -60 0 0 70 0 70 -60 0 -60 0 0 70 0 70
-70 0 -70 0 0 65 0 65 -65 0 -65 0 0 70 0 70 -58 0 c-32 0 -62 -3 -65 -7z
m-179 -1505 l3 -138 -61 0 -60 0 0 -65 0 -64 -62 -3 -63 -3 3 -57 4 -58 -71 0
-71 0 0 -55 0 -55 -205 0 -205 0 0 60 0 60 65 0 65 0 0 60 0 59 63 3 62 3 3
68 3 67 59 0 59 0 3 68 3 67 73 3 72 3 0 57 0 57 128 0 127 0 3 -137z"/>
<path d="M7070 13725 l0 -65 -70 0 -70 0 0 -70 0 -70 -60 0 -60 0 0 -70 0 -70
-55 0 -55 0 0 -135 0 -135 -70 0 -70 0 0 -355 0 -355 60 0 60 0 0 74 0 74 63
-1 62 -2 3 65 3 65 97 -2 c53 -1 123 -2 155 -2 l57 -1 0 -195 0 -195 43 -1
c23 -1 57 -2 75 -3 l32 0 0 -68 0 -68 40 0 40 0 0 -65 0 -65 40 0 40 0 0 -40
0 -40 50 0 50 0 0 -55 0 -55 84 0 85 0 3 -47 3 -48 98 0 97 1 0 -53 0 -53 125
0 125 0 0 -60 0 -60 -330 0 -329 0 -3 58 -3 57 -178 3 -178 2 3 -67 3 -67 123
0 c116 0 122 -1 123 -20 0 -12 1 -41 2 -66 l2 -45 589 0 589 0 -1 -67 0 -67
66 -3 67 -3 3 -72 3 -73 64 0 65 0 0 -70 0 -70 65 0 65 0 0 -135 0 -135 63 0
63 0 -1 -196 c0 -122 3 -198 10 -202 5 -3 35 -6 65 -7 l55 0 5 -215 5 -215 55
0 55 0 0 360 0 360 -57 0 -58 -1 0 268 0 268 -65 0 -65 0 0 140 0 140 -59 0
-60 0 0 125 -1 124 127 3 128 3 0 63 0 62 57 0 57 0 3 -62 3 -63 198 -3 197
-2 0 65 0 65 65 0 65 0 0 70 0 70 65 0 65 0 0 408 c0 224 -4 413 -9 420 -5 9
-26 12 -67 10 l-59 -3 -2 -60 c-1 -33 -2 -129 -2 -212 l-1 -153 -55 0 c-45 0
-55 -3 -56 -17 -1 -10 -2 -65 -4 -123 -1 -58 -3 -111 -4 -117 -1 -9 -21 -13
-66 -13 l-65 0 0 -80 0 -80 -65 0 -64 0 -3 -57 -3 -58 -62 -3 -63 -3 0 134 0
134 30 -5 c16 -2 46 -1 65 2 l35 7 0 479 0 479 -67 3 -68 3 -1 90 c-1 50 -2
111 -3 138 l-1 47 -60 0 -60 0 -1 -242 c0 -134 0 -262 1 -285 l2 -43 -66 0
-65 0 -3 -117 -3 -118 -132 -3 c-102 -2 -133 0 -134 10 -1 7 -2 36 -3 63 l-1
50 -62 3 -62 3 -3 62 -3 62 -122 3 -123 3 0 64 0 64 -67 3 -68 3 -3 68 -3 67
-124 0 -124 0 -3 68 -3 67 -132 3 -133 3 0 59 0 60 -282 2 -283 3 -3 68 -3 67
-59 0 -60 0 -1 58 c0 31 -2 95 -2 142 l-2 85 63 3 62 3 0 64 0 65 -70 0 -70 0
0 -65z m702 -1222 l3 -58 67 -3 67 -3 3 -67 3 -67 55 0 55 0 5 -65 5 -65 65
-5 65 -5 3 -62 3 -62 62 -3 61 -3 -1 -37 c-2 -87 22 -78 -208 -78 l-205 0 0
55 0 55 -71 0 -71 0 5 47 c7 68 3 73 -59 73 l-54 0 0 65 0 65 -60 0 -60 0 0
140 0 140 130 0 129 0 3 -57z"/>
<path d="M7038 11743 c-15 -4 -18 -16 -18 -64 l0 -59 50 0 50 0 0 60 c0 41 -4
60 -12 60 -7 0 -22 2 -33 4 -11 2 -28 2 -37 -1z"/>
<path d="M13467 11743 c-4 -3 -7 -33 -7 -65 l0 -58 55 0 55 0 0 65 0 65 -48 0
c-27 0 -52 -3 -55 -7z"/>
<path d="M7380 10865 c0 -55 3 -65 18 -66 9 -1 69 -2 132 -3 l115 -1 3 -67 3
-68 189 0 190 0 0 -65 0 -64 68 -3 67 -3 -2 -67 -1 -68 68 0 69 0 3 -67 3 -68
63 -3 62 -3 0 -114 0 -115 69 0 69 0 0 -89 c0 -49 3 -94 6 -100 4 -6 28 -10
54 -9 l47 3 3 153 3 152 -61 0 -60 0 0 130 0 130 -60 0 -60 0 0 135 0 134 -67
3 -68 3 -1 65 -1 65 -270 5 -270 5 0 35 c0 19 -1 47 -2 63 l-1 27 -190 0 -190
0 0 -65z"/>
<path d="M12820 10865 l0 -65 -267 -2 -268 -3 -3 -67 -3 -68 -68 0 -69 0 0
-72 c0 -40 0 -101 -1 -135 l-1 -63 -60 0 -60 0 -1 -52 c0 -45 -5 -151 -8 -195
-1 -9 -18 -13 -51 -13 l-51 0 3 -152 3 -152 50 0 50 1 3 91 c3 87 4 92 25 93
12 0 40 1 62 2 l40 2 3 118 c2 83 6 117 15 118 7 1 35 2 62 3 l50 1 3 68 3 67
64 0 65 0 0 70 0 69 68 3 67 3 3 63 3 62 194 0 195 0 0 65 0 65 130 0 130 0 0
70 0 70 -190 0 -190 0 0 -65z"/>
<path d="M15000 10450 l0 -70 60 0 60 0 0 70 0 70 -60 0 -60 0 0 -70z"/>
<path d="M9760 7975 l0 -76 516 1 c284 1 523 4 530 7 10 4 14 25 14 74 l0 69
-530 0 -530 0 0 -75z"/>
<path d="M9513 7902 c-21 -3 -23 -9 -23 -68 l0 -65 -112 1 c-62 1 -123 1 -135
1 -21 -1 -23 -5 -23 -66 l0 -65 135 0 135 0 0 65 0 65 135 0 135 0 0 65 c0 55
-3 65 -17 66 -45 3 -210 4 -230 1z"/>
<path d="M10820 7840 l0 -70 141 0 c128 0 140 -2 138 -17 -1 -10 -1 -39 0 -65
l1 -48 130 0 131 0 -3 68 -3 67 -124 2 c-68 2 -126 5 -129 7 -2 3 -5 31 -6 63
l-1 58 -137 3 -138 3 0 -71z"/>
<path d="M11377 7632 c-14 -3 -17 -16 -17 -68 l0 -64 125 0 125 0 0 65 0 65
-52 1 c-29 0 -78 2 -109 2 -30 1 -63 1 -72 -1z"/>
<path d="M9220 6750 l0 -70 -125 0 -125 0 0 -70 0 -70 -70 0 -70 0 0 -70 0
-70 -65 0 -64 0 -3 -72 -3 -73 -65 -3 -65 -3 1 -152 c1 -84 3 -205 3 -270 l1
-118 63 3 62 3 3 125 c1 69 4 130 6 135 2 6 30 9 65 7 l61 -4 0 -69 0 -69 131
0 130 0 -2 -62 -3 -63 137 -3 137 -3 0 -69 0 -70 -138 0 -137 0 0 -62 0 -63
183 -3 182 -2 0 60 0 60 50 0 c28 0 50 4 50 10 0 5 30 10 68 12 l67 3 -4 128
-3 127 76 0 76 0 -2 418 -3 417 -68 3 -68 3 1 37 c1 20 2 52 1 70 l-1 32 -235
0 -235 0 0 -70z"/>
<path d="M10890 6750 l0 -70 -70 0 -70 0 0 -420 0 -420 70 0 70 0 0 -90 0 -90
55 0 c58 0 60 -2 55 -57 -1 -19 4 -22 47 -25 l48 -3 3 -67 3 -68 199 0 200 0
0 65 0 64 -132 3 -133 3 2 55 c1 30 2 61 2 68 1 9 34 12 131 12 l130 0 0 65 0
65 125 0 125 0 0 70 0 70 65 0 64 0 3 -132 3 -133 65 0 65 0 3 267 2 267 -67
3 -68 3 -3 73 -3 72 -64 0 -65 0 0 70 0 70 -70 0 -70 0 0 70 0 70 -125 0 -125
0 0 70 0 70 -235 0 -235 0 0 -70z"/>
</g>
</svg>
